<svg height="1000" width="1000">
  <path transform="scale(1,-1) translate(0,-850)"
        d="M918 45c0-32-10-48-29-48-12 0-20 1-25 2s-10 3-17 6-15 6-24 10-17 8-23 11l-39 33-45 9-43 13-62 5v-31c0-9 2-20 6-32-6-7-13-10-22-10-5 0-13 2-23 6h-32l-1-15-27-17c-4-1-13-3-27-5-2 0-5 0-10-1-6 1-14 1-25 2s-18 1-21 1c-9 0-14 0-17-1l-20-3 6 8 8 9c-3 11-10 17-20 18l-26 1-19-12c3 14 10 23 23 27l37 13c7 12 19 18 35 18 13-9 34-17 63-24v42c-2 8-7 20-15 35-10 19-19 31-26 37-7 1-14 5-22 10s-16 10-24 15-17 11-26 20-16 15-20 20l-10 14c-24 16-39 34-44 54-9 4-16 10-19 17l-18 61-5 24c-15 18-26 35-32 52-1 13-2 24-2 33s-1 19-4 32l6 32 11 34 31 40-47-13-49-11-65-7-58-5c-11-5-24-12-39-21-5-3-13-8-22-14 0 16 5 30 14 41 3 3 9 8 19 15s16 12 17 14c47 27 86 49 118 66 50 27 96 52 137 73 7 5 13 10 19 15s10 9 13 12c11 10 22 20 33 30 11 7 22 12 33 15s24 4 40 3h17l19-3 19-4c7-2 13-5 19-9 9-7 15-14 18-23s5-20 4-33c0-12 0-21-1-27s-4-13-10-22-11-16-16-21-11-9-20-11c-3-1-8-1-15 0s-12 1-17 0c-12-2-23-6-34-12-7-4-17-12-29-23-7-7-14-13-21-20-11-12-17-24-17-37 7-16 16-26 27-30l44-15 14-1 67-5 12 19 19 5c9 0 17-1 24-3 8-3 16-6 24-9 17-3 34-9 52-18 27-19 55-44 83-75l75-87c8-13 16-25 23-38 3-4 10-17 21-40l19-40c5-14 9-25 12-32 9-25 14-38 15-40l24-82 15-4 55-25z m-524 721c2 8 1 14-4 17s-9 5-12 4l-8-2c-7-3-10-8-10-15 0-4 2-7 6-10s8-4 13-4c8 0 13 3 15 10z m313-313l-61 54-84 34-14 2c-15 0-24-7-27-22l13 2h10c27 0 52-6 76-19s51-32 82-57z m157-242c0 10-6 26-18 48l-34 56-146 140c-21 13-46 26-73 38-13 5-25 9-37 12s-26 6-41 7c-6 3-18 6-35 9-3 0-7 1-12 2h-77c-11 0-19 1-26 4s-12 6-17 9-8 6-10 7l-4 24c0 9 2 17 6 24s7 11 8 14c6 9 13 18 22 27l144 85c13 15 20 29 20 43 0 12-6 25-19 40l-18 8-76 6c-25 0-41-6-47-19l45-2 26 3 29-9c10-4 16-12 17-23l-24-17-11-5 13 31c-1 2-6 5-15 8-33 0-53-16-59-47 7-3 15-4 24-4 11 0 19 2 26 6l-1-6-128-99-24-21c-8-7-15-15-21-26s-12-24-17-39v-20l6-50 18-32 16 22 13 17c3 4 8 8 15 13s16 8 25 11c20-5 38-14 55-29l22-24c3-3 6-6 10-11s7-10 10-15l-41 21-57 21c-28 0-45-7-50-21-6-12-9-30-9-54 9-25 20-50 33-73 11-21 28-42 51-61l-1 13-10 35-2 21 58-103 28-17-11 36-8 26c7-5 14-12 22-21s15-21 20-35c13-27 30-40 50-40 1 4-4 17-15 38-3 7-9 18-17 32l-3 12 96-117c5-7 14-13 27-16-2 5-4 9-5 12-5 8-8 14-11 18-5 9-9 17-11 22s-4 12-6 20l39-50c17-25 30-37 41-37-3 1-6 6-7 15s-4 17-7 25l10-15c1-2 8-10 23-25 5-5 12-12 23-22 4-1 25-6 62-14 11-2 28-6 50-11l27-17 20-10 9 4-3 17-48 12-79 21c-27 17-42 42-47 74l23-30 30-24 26-9c4-1 9-1 14 0s11 1 16 1l-28 48-110 59c-6 3-18 13-36 28-6 5-15 13-28 24l-29 41c-6 12-14 25-24 39-7 11-18 24-31 39l-30 36c-4 5-8 11-13 18s-10 14-15 21l-42 37c23-8 47-23 70-44l61-61 39-58 112-95 101-78-26 46 2 18c3-5 5-9 7-13 6-9 17-24 32-43 3 1 2 11-5 28-9 25-14 38-14 39 5-9 10-17 13-22 10-15 21-30 32-44l-18 72c1-3 8-16 23-41 5-8 12-20 23-37 2 3 3 6 3 7 0 6-4 18-12 35l-21 41 32-40z m-450 506l-1 5c-8 0-16 2-25 7s-17 7-24 6c-25-8-52-19-81-32-5-3-33-16-82-40l-87-42-74-41-6-7 39 14 53 10 36 1c29 0 59 5 89 16 8 3 14 9 19 18l16 25c17 13 37 24 61 34z m-61 29c-13 0-33-5-59-15l-200-105-53-29c-19-10-30-24-34-43l4 5 25 27 71 37 158 80c55 24 85 38 88 43z m229-694c-2 7-4 13-5 18s-4 12-7 21c-5 10-16 15-31 15l-9-13-3-18 1-21z m-194 725c1-6-2-10-9-11-5 0-8 1-9 3-2 4-1 7 4 10 2 1 5 2 8 2s5-1 6-4z"/>
</svg>
