<svg height="1000" width="1000">
  <path transform="scale(1,-1) translate(0,-850)"
        d="M171 508c29 5 64-6 94-29 3-3 13-12 22-20 18-19 27-25 40-31 12-6 23-9 51-18 33-9 44-14 75-29 23-12 38-18 59-25 38-13 55-19 77-30 19-9 26-12 37-15 8-2 28-7 39-9 27-3 62-9 69-10 5-2 12-4 16-6 7-3 14-10 12-11-1 0-7-1-13-2-5-2-18-4-27-6s-17-2-18-3c-1 0 4-1 10-1 25 0 53-3 122-10 39-5 53-6 68-6 25-1 32-3 39-10 3-4 3-11 1-16-2-3-2-4-1-5 3-3 1-8-3-10-3-1-2-1 3-3 9-2 10-6 1-9-3-1-7-2-18-1-19 0-33 1-78 6-20 2-48 5-65 6-15 1-39 4-54 5-29 2-30 2-54-5-19-6-24-8-52-11-34-4-44-8-61-22-26-23-52-38-88-54-25-11-25-11-36-19-11-8-31-27-42-40-9-9-17-21-19-28-1-3-2-7-3-8-1-1-2-3-2-3 0-1 7 0 23 4 22 6 31 6 36 0 2-1 5-10 4-10-1 0-3 0-4 3-6 5-9 5-16-1-6-6-9-7-19-9-28-4-34-8-48-30-4-6-12-16-16-22-14-17-13-15-13-14 0 4 4 14 11 24 9 13 13 24 14 29v5l-17-5c-31-10-32-11-52-11-15 0-18-1-23-2-1-2-5-4-6-5-2-1-2-1-2 0 0 4 4 9 8 12 6 4 14 6 31 7 13 1 22 3 25 5 1 1 0 1-2 1s-5 2-9 4c-7 5-10 5-14 1l-4-1 2 2c2 3 4 6 8 7 5 2 9 2 25-1 9-1 16-2 18-2 9 2 18 9 34 26 5 6 16 18 24 26 20 22 35 40 33 41-1 1-12 1-21 1-8-1-9-1-9-3 0-2 0-2-3-1-4 3-6 2-10-2-5-5-21-9-38-9-10 0-19-1-23-4-2 0-6-4-10-8-6-8-14-16-22-23-6-5-7-6-7-8s1-5 1-6c2-2 0-1-3 1-2 3-3 5-3 7 0 6 3 10 16 26 6 8 10 14 9 15 0 0-49-8-62-11-14-2-27-7-32-11-5-3-5-2-2 3 4 11 20 17 50 21 6 0 12 1 12 2 0 0-1 1-2 1-1 0-6 1-12 3-10 5-16 5-19 2-3-2-4-1-1 4 3 7 13 7 30 1 10-3 11-3 19-3 6 1 11 2 22 4 7 3 14 6 15 6 3 0 1 1-9 2-23 6-42 12-64 24-59 30-102 83-112 140-4 21-4 37 0 68 5 41 3 62-7 80-10 19-22 28-61 42-8 3-14 5-14 6 1 2 9 7 14 8 4 2 11 2 27 3 27 1 27 1 48 11 16 9 21 10 31 12z"/>
</svg>
