<svg height="1000" width="1091">
  <path transform="scale(1,-1) translate(0,-850)"
        d="M488-102c-5 3-13 24-18 45-1 2-2 7-3 11-1 5-2 9-2 10 0 1-1 3-1 4-1 2-2 6-2 9-2 9-3 16-5 24-1 6-1 6-1-10 1-29 1-53-1-58-1-1-1-3-1-5 0-3-6-21-8-23 0-1-1-2-1-3 0-1-3-2-4-1-3 3-6 10-9 22 0 2-1 5-2 6 0 1-1 3-1 4 0 1 0 3-1 5 0 2-1 6-2 9 0 3-1 8-2 10-1 4-2 14-3 19-1 6-3 17-3 18 0 0 0 1 0 1-1 0-1-6-1-13 0-6-1-12-1-13 0 0-1-3-2-6-2-12-5-19-9-26-3-6-8-11-9-11-2 0-8 17-9 27-1 5-1 10-2 12-1 6-2 20-3 34-1 8-1 18-2 22l-1 9 0-7c0-4 0-9 0-12 0-3-1-5-1-6-1-1-1-2-1-4 0-2-1-11-3-15-5-11-12-21-15-21-4 1-8 12-11 28-2 15-3 20-3 38-1 11-1 20-1 20 0 0-2-4-4-10-4-11-6-15-8-15-5 0-12 12-15 25-2 8-4 26-3 31 2 24 5 48 9 64 1 3 2 7 2 9 0 2 0 4 1 4 0 1 0 2 0 4 1 7 3 18 4 20 0 1 1 3 1 5 0 2 0 4 1 4 0 0 1 2 1 4 0 1 0 2 0 2 1 0 2 3 2 6 1 3 2 8 3 11 0 2 2 6 2 8 7 15 8 19 8 32 0 7 1 16 1 19 2 10 3 17 4 19 1 2 2 6 2 9 1 4 2 8 2 9 1 2 1 3 1 4 0 1 5 12 9 19 0 1 2 4 3 7 2 5 9 12 11 12 2 0 38 35 38 37 0 0 1 0 1 0 1 0 7 9 7 10 0 2-14 5-31 7-14 1-26 1-52 2-16 0-33 0-39 1-6 1-14 1-17 1-7 1-11 2-29 5-11 2-18 2-29 2-18 0-23-1-33-7-5-3-11-5-13-6-2-1-6-3-8-5-4-3-14-10-15-10 0 0-2-1-5-3-2-1-7-4-10-7-3-2-9-6-12-9-4-3-7-5-8-6-1 0-3-2-5-4-2-1-5-3-6-4-1-1-3-2-3-3-1 0-2-1-3-2-1 0-4-3-19-16-3-3-6-5-6-5 0 0-3-2-6-4-2-3-5-5-5-5 0 0-2-1-5-3-3-4-7-6-20-16-5-4-11-7-12-6-1 1 1 5 3 8 1 0 4 3 5 6 6 6 16 17 31 33 2 3 6 7 9 10 2 2 8 9 14 15 5 5 10 11 12 13 1 2 4 5 7 9 3 3 7 7 9 9 2 3 5 6 7 8 1 2 3 3 3 4 0 1 0 1 1 1 0 0 3 5 3 6 0 1 1 2 1 3 1 1 2 3 3 5 2 7 5 16 6 20 4 8 20 20 33 24 11 4 14 4 24 4 9-1 14-1 23-4 7-2 13-4 14-5 0 0 1-1 2-1 1 0 3-1 5-2 3-1 5-2 6-2 1 0 2 0 2-1 2-1 21-7 32-8 11-2 21-2 29 1 12 4 20 7 25 9 2 2 6 4 8 5 2 1 5 4 8 6 3 2 7 6 11 8 3 3 6 5 6 5 0 1 0 1 1 1 2 0 11 6 11 7 0 0 0 1 1 1 0 0 3 1 5 3 3 1 5 3 5 3 1 0 20 12 20 13 0 0 1 0 2 0 1 0 2 1 2 1 0 1 2 2 4 3 2 1 6 4 9 7 5 6 6 8 8 22 1 10 2 36 1 45-1 4-1 10-2 13 0 3-1 6-1 7-1 1-1 3-1 4 0 2 0 3-1 3-1 1-1 2-1 3 0 1-1 4-2 6-1 3-2 5-2 5 0 1-1 4-3 8-2 3-3 7-3 7 0 1 0 1-1 1 0 0-1 3-3 5-3 7-5 10-11 14-2 2-7 10-6 10 1 0 0 1-1 2-1 1-1 3-1 7 0 5 0 6 5 13 1 2 2 5 2 9 0 2 1 5 1 5 1 0 2 3 3 6 1 3 2 6 3 7 1 1 1 3 1 4 0 2 1 3 1 3 1 0 1 1 1 1 0 1 1 4 2 6 1 3 3 6 3 8 2 4 6 11 10 17 2 2 3 5 3 5 0 1 0 1 1 1 0 0 1 2 2 3 1 2 2 4 3 4 1 1 3 4 6 7 2 3 5 6 6 7 2 1 3 3 4 3 5 5 11 7 12 5 1-2 1-19-1-20 0-1-1-2-1-3 0-1-1-4-2-7-1-3-2-5-2-6 0-1-1-2-2-3-1 0-1-2-1-2 0-3-3-7-6-11-1-1-2-3-2-3 0-1-2-2-3-4-3-2-3-3-2-3 1 0 2 0 2 1 0 0 1 1 3 2 1 0 3 1 3 2 0 0 1 1 2 2 2 1 4 2 6 4 8 7 10 9 17 15 21 20 24 22 29 17 1-1 2-3 2-4 0-1 0-2 1-2 1-1 0-14-2-18-2-5-10-13-15-15-3-1-5-2-5-2-1-1-9-5-13-6-5-2-3-2 4-1 3 0 18 1 41 0 31 0 37-1 38-2 1-1 2-2 1-3-2-1-14-2-26-1-12 1-25 1-27 0 0-1 1-1 5-1 8 0 28-4 47-8 8-3 31-11 33-13 0 0 2-1 3-1 1 0 3 0 6-1 2-1 8-3 13-4 19-6 35-12 50-18 10-5 10-5 8-6-2-2 0-5 4-7 2-2 5-3 5-4 2-2 1-2-3-5-1-1-2-2-2-3-1-2 0-3 6-6 15-7 19-9 20-11 2-2 2-2-1-1-2 0-3 0-3-1 1-1 1-2 2-2 3 0 13-7 13-9 0-1 1-2 3-3 7-4 9-6 8-8 0-2 0-3-1-4-1-1 0-2 2-4 2-2 3-4 3-6 1-3 1-3-3-4-2 0-4 0-4-1 0 0 2-2 5-3 3-2 4-4 4-6 0-1 1-3 1-4 1 0 1-1 1-1-1 0 0-1 1-3 2-4 3-8 2-10-2-3-2-5 2-8 5-3 9-8 8-12 0-3 0-4-3-4-3 0-4-1-4-2 0-2 1-3 1-4 1-1 1-2 0-3-1-1-1-1 0-2 1-1 1-2 1-3 0-2 1-3 1-3 1-1 1-2 1-3-1-1 1-5 5-8 5-4 6-13 2-15-2-1-2-2 0-4 3-2 3-3 2-4-2-3-4-4-7-2-1 0-3 1-3 0-1-1-1-1 0-1 1 0 1-1 1-2-1-1 1-3 4-5 3-1 7-4 9-6 4-4 0-3 38-7 21-2 24-3 30-5 3-1 5-2 6-3 0 0 1-1 3-1 5-2 10-5 13-8 2-1 5-4 7-5 5-2 7-3 7-6 1-1 2-2 3-2 12-4 18-8 16-12 0-1 1-3 2-5 3-3 3-4 1-5-2-1-2-1 5-6 4-4 5-5 5-7 0-1 0-2 6-3 3 0 8-1 10-2 3 0 6-1 8-1 7-2 19-2 22-1 6 2 21 3 28 3 7 0 10-2 7-4-1-1-3-2-4-2-4-1-3-3 1-3 4 0 11-2 24-6 9-3 12-4 16-8 2-2 5-4 5-5 0 0-2-1-4-2l-3-1 3-1c5-2 16-8 16-8 0-1 0-2 0-3-2-2-2-3-13-2-27 0-51 2-54 3-1 0-5 1-9 1-7 0-12 1-23 4-10 3-17 5-27 8-3 0-9 1-14 3-21 4-22 4-23 0 0 0-3-1-6-1l-5 1 1-4c1-5-1-6-11-6l-9 0 1-3c1-5-2-6-8-5-3 0-7 1-9 1-9 2-12 2-18 5-3 1-7 2-7 3-1 0-2 1-2 1-1 0-3 1-5 3-2 1-6 3-8 4-1 0-3 1-4 2-1 0-5 2-10 5-5 3-12 6-15 8-4 2-7 4-8 4-1-1-3-3-4-5-1-2-4-4-6-6-4-1-4-1-10 0-12 4-13 4-4-1 7-4 7-4 7-7-1-1 0-1 0-1 1 0 4-8 5-12 0-3 2-7 5-10 2-3 4-7 4-7 0-1 1-2 2-3 1 0 1-1-1-4-1-2-3-4-4-5-1-1-2-3-2-3 1-2-5-7-8-6-2 0-2 0-2-2 0-2 0-3-2-5-2-1-2-2-1-3 1-1 1-4 1-6 0-4-1-6-5-6-2 0-2-1-2-3 0-1-1-2-5-4-5-3-10-7-9-8 1-1 0-1-1-1 0 0-2-1-3-2-1-2-2-3-4-3-5 0-6-2-5-5 1-2 2-3 2-3 1 0 0-1-1-3-2-2-3-3-5-3-3 0-3 0-2-2 1-5-4-10-11-10-3 0-4 0-4-3-1-4-7-9-12-8-4 1-5 0-5-2 0-3-4-5-8-6-3 0-6-2-6-3 0-1-1-2-2-3-2-2-4-5-5-7-1-1-4-5-5-7-3-2-3-4-3-7 0-3-1-4-4-9-4-4-5-6-4-8 0-3-5-15-7-15-3-1-7 0-10 1l-3 2-1-5c0-3-1-5-4-9-3-3-4-5-4-7 0-2 1-6 1-10 0-5 0-6-3-9-1-2-3-4-4-4 0-1 0-5 2-12 2-6 2-13-1-17-2-4-4-7-6-7-1 0-8 4-9 5-1 1-1 0-1-2 0-2 0-4 1-4 0 0 0-2 0-4-1-2-1-4-2-6 0-3-5-10-8-11-2-1-2-1-1-8 0-4 1-11 1-14 1-4 1-10 1-14-1-6-1-7-3-10-2-1-3-3-3-3 0 0-1-2-2-3-2-2-2-2-5 0-1 1-3 2-3 3-1 1-2 3-3 3-1 1-2 2-2 3 0 1-12 21-13 21-1 0 0-4 2-6 0 0 1-1 1-3 0-1 0-4 1-7 3-7 4-14 4-17 0-2 1-4 1-5 1-1 1-4 2-6 0-3 0-6 0-6 1 0 1-5 1-12 0-6 1-14 1-18 1-5 1-8 0-9 0 0-1-3-1-6 0-7-3-17-6-21-3-3-4-3-6 0-3 2-10 17-10 20 0 0-1 1-1 2-1 0-1 1-1 2 0 2-1 3-3 8-1 1-1 3-1 4 0 1 0 2-1 2-1 1-1 4-4 13-1 2-2 5-2 5-1 1-1 2-1 4 0 1 0 3-1 3-1 1-3 7-8 24-1 3-2 6-2 6 0 0-1 2-1 3 0 2 0 3-1 3 0 0-1 1-1 3 0 2 0 2-1-1 0-2 1-3 1-3 1 0 1-1 1-3 0-2 1-3 1-3 0 0 1-1 1-3 0-1 1-6 2-11 0-5 2-13 2-18 1-5 1-11 1-13 1-3 2-25 2-41 0-4 0-7 0-7-1 0-1-2-1-5 0-10-4-30-7-35-2-3-3-3-4-2z m0 151c0 1-1 1-1-1 0-1 1-1 1-1 0 0 0 1 0 2z m441 335c0 0-8 2-16 4-11 3-17 4-19 4-2-1-3-1-3-2 1-1 24-5 32-6 2 0 4 0 5 0 1 0 1 0 1 0z m43 11c0 0-1 0-2 0 0 0 0-1 1-1 1 0 2 1 1 1z"/>
</svg>
