<svg height="1000" width="1077">
  <path transform="scale(1,-1) translate(0,-850)"
        d="M65 271c13 19 34 28 63 28 5 0 13 0 23-1s17-1 21-1c3-3 8-4 15-3s12 0 13-4c4 3 10 3 17 1s12-2 15 1c13-4 24-6 34-7 5-1 14 0 25 1v-6c5-1 11-1 19 0l3-7c3 3 7 3 13 2s10 1 12 6 5 11 8 18 7 10 11 9c0 5 3 9 9 13s9 8 8 13c5 1 10 6 13 14s7 12 11 12c0 5 3 8 9 10s8 5 7 10c3-1 6 1 8 6s3 7 4 8l1-1c3 1 6 4 8 8l5 10h-62c-25 1-43 9-52 24 2 13 10 24 24 32s27 15 40 22c-6 6-23 14-52 25-23 8-36 21-41 38l3 2c13-11 33-20 60-29l2 3c-27 17-49 50-67 99-2 13-1 20 2 23h4c21-50 47-85 78-104l2 2c-7 14-15 28-22 43-8 17-11 33-8 47 2 1 4 2 6 2 3 0 6-4 8-12s4-13 5-16c12-17 24-34 35-51 15-18 33-27 52-28 4-1 7 1 8 4s2 7 3 10l6 36c5 13 13 21 24 24-7-44-9-76-5-97l-13-13c10 3 24 3 43 1 23 22 57 58 102 108 4 5 12 11 23 19 9 7 21 14 36 20 13 5 25 11 38 17s21 8 25 6c8 2 15 3 22 2s17 1 32 4c6-1 14-2 23-5 5-1 11-1 19 0 6 0 13-2 21-7l11-1v-4c13-1 28-6 43-16 12-9 24-18 37-27 19-15 37-36 54-61 3-5 17-29 41-71 18-41 27-85 27-130 0-97-37-189-111-276-40-47-92-81-157-103-40-13-102-26-187-37s-146-23-184-35l-42-18c-17-7-30-10-41-8l11 10c31 17 92 39 181 68l168 28c65 13 117 35 154 64 90 71 135 165 135 282 0 33-4 65-12 97-9 37-27 71-52 101-27 33-59 54-94 62-44 1-85-10-122-35s-67-58-88-100c8-7 13-19 15-36 2-25 4-39 5-42 23 30 45 45 65 45 3 0 7 0 10-1 11-4 28-14 51-30 21-15 39-24 52-28 6-3 12-6 19-9s11-8 12-14l-1-12c-9 9-23 16-40 21l-44 12c-1-3-1-6-1-9 0-4 5-20 16-47 18-31 30-53 37-67 11-26 18-50 20-73-3-5-6-7-9-6-7 10-17 33-31 70-11 29-24 51-39 66 4-60-1-102-14-126-5-5-9-6-13-4 1 6 3 20 8 42 3 17 5 31 5 42 0 15-3 29-10 42l-8-2c-9-19-24-38-44-55-1 3-2 7-2 10 0 8 5 19 15 33s15 24 15 31-3 14-8 21c-8-3-20-13-36-29s-30-24-42-25c-19 0-37 18-54 55-13-24-32-60-57-109 15 0 24-6 27-19s4-26 4-39c0-41-8-85-25-132-7-12-14-19-22-22 4 11 7 27 8 48-6-7-13-19-22-37s-18-31-27-39c-2 9 0 21 7 34 9 19 14 31 15 34l-3 3-61-40c-2 11 4 21 17 31 17 12 27 21 30 28-27 3-47 3-58-2-3 7 1 14 12 20-2 0 7 0 26-1 11 0 19 3 22 9l-19 14c-5-1-16-4-33-10-13-4-24-6-33-6-10 0-19 3-27 8-9-1-21 0-34 2-16 2-27 3-33 3-8 0-15-1-22-3-27-9-40-23-40-43 0-5 7-22 21-51-8-4-15-4-21 1s-12 14-17 27c-18-21-27-41-27-61 0-5 1-9 2-14-13 3-20 8-20 15 0 8 3 19 8 34-9-3-17-6-25-9-10-5-17-12-21-19v-8c-7-3-12 1-15 10-3 8 0 15 8 21 7 4 14 8 21 13-11-1-23-2-36-3s-22-6-29-14c-5 4-7 10-4 19 7 9 21 14 44 17s37 10 43 21c-6 5-16 8-31 11s-25 6-32 9c6 7 13 11 22 11 5 0 12-1 22-4s17-4 20-4c11 0 19 6 25 17-11 6-28 16-50 29-19 0-40 5-63 16-19 9-38 19-57 28-14 11-22 23-24 34-3 17 3 31 20 42z"/>
</svg>
