<svg height="1000" width="1000">
  <path transform="scale(1,-1) translate(0,-850)"
        d="M345 399c-16 8-29 20-39 30-42 44-74 100-90 157-2 7-4 14-5 20-50 42-75 44-78 44 0 0 0 0 0 0l0 0c16-23 76-109 97-151 26-36 75-101 115-100z m-209 263c10-1 32-6 71-37-3 18-4 36-3 53 0 27 5 53 13 78-6 2-12 3-18 3-29 0-59-20-68-97 0 0 1 0 2 0 1 0 2 0 3 0z m310 106c1 4 1 8 0 12 0 6 3 11 8 13 0 0 9 3 19 9-15 52-68 20-68 20-17 6-30-1-38-10 26-8 52-21 75-40 2-1 3-3 4-4z m13-11c5-6 11-12 16-18 19-24 35-51 44-80 14-43 17-86 9-128-6-30-17-53-27-71 50 48 53 180 50 203-4 31-6 101 0 134 2 40-3 53-10 53-10 0-25-25-34-36-8-11-21-19-31-25-10-5-17-8-17-8 0-8 0-16 0-24z m-237-144c1-4 2-7 3-11 1-3 2-7 3-11 16-57 48-111 88-153 13-14 30-29 49-32 2-1 4-1 5-1 2 0 3 0 5 0 6 0 12 1 19 2 0-2 1-4 2-6 0-2 1-4 1-6 18-61 54-204 35-336 2 3 4 6 5 9 8 13 16 27 23 41 3 51 0 109-10 175-7 49-12 90-16 118-1 2-1 4-1 6-1 2-1 5-1 7 0 0 0 0 0 0 3 0 5-1 7-1 0 0 0 0 1 0 4 0 13 6 23 16 2 2 5 5 7 7 2 3 4 5 6 8 30 40 62 117 31 210-8 24-20 46-34 66-5 7-10 13-16 19-2 2-4 4-6 6-2 2-3 4-5 6-25 23-55 41-87 49-14 4-29 6-43 6-12 0-25-2-37-4-12-3-23-8-32-17-1 0-1-1-2-2-5-6-9-12-11-19-1-1-1-1-1-2 0-1-1-3-2-4 0-2-1-4-2-6-8-26-13-52-13-78 0-21 2-42 6-62z m236-535c-3-6-6-11-10-17-8-13-16-27-23-41-12-22-23-44-33-67-11-23-45-69-50-103h105c7 15 12 32 19 48 23 46 46 93 64 141 41 110 82 218 135 323 25 49 49 90 88 129 19 19 103 86 116 110-9-2-74-56-82-62-119-77-186-182-251-306-27-51-49-105-78-155z"/>
</svg>
